<svg xmlns="http://www.w3.org/2000/svg" viewBox="0 0 312 620" width="312" height="620">
  <defs>
    <linearGradient id="p17-frame" x1="0" y1="0" x2="1" y2="0">
      <stop offset="0" stop-color="#905a35"/>
      <stop offset=".06" stop-color="#f0cab1"/>
      <stop offset=".14" stop-color="#d3834e"/>
      <stop offset=".86" stop-color="#c87c4a"/>
      <stop offset=".95" stop-color="#eab38f"/>
      <stop offset="1" stop-color="#7a4c2d"/>
    </linearGradient>
    <linearGradient id="p17-back" x1="0" y1="0" x2=".35" y2="1">
      <stop offset="0" stop-color="#d8834f"/>
      <stop offset=".45" stop-color="#d06b2e"/>
      <stop offset="1" stop-color="#964d21"/>
    </linearGradient>
    <linearGradient id="p17-sheen" x1="0" y1="0" x2="1" y2=".55">
      <stop offset="0" stop-color="#fff" stop-opacity=".34"/>
      <stop offset=".3" stop-color="#fff" stop-opacity=".06"/>
      <stop offset=".55" stop-color="#fff" stop-opacity="0"/>
      <stop offset="1" stop-color="#000" stop-opacity=".22"/>
    </linearGradient>
    <linearGradient id="p17-bump" x1="0" y1="0" x2="1" y2="1">
      <stop offset="0" stop-color="#de976d"/>
      <stop offset=".5" stop-color="#d27238"/>
      <stop offset="1" stop-color="#924b20"/>
    </linearGradient>
    <radialGradient id="p17-ring" cx=".35" cy=".3" r=".8">
      <stop offset="0" stop-color="#f2d0ba"/>
      <stop offset=".6" stop-color="#c87c4a"/>
      <stop offset="1" stop-color="#643e25"/>
    </radialGradient>
    <radialGradient id="p17-glass" cx=".42" cy=".38" r=".62">
      <stop offset="0" stop-color="#3a4a6a"/>
      <stop offset=".28" stop-color="#141b2b"/>
      <stop offset=".62" stop-color="#05070c"/>
      <stop offset="1" stop-color="#000"/>
    </radialGradient>
    <radialGradient id="p17-coat" cx=".7" cy=".75" r=".5">
      <stop offset="0" stop-color="#6f7dff" stop-opacity=".16"/>
      <stop offset="1" stop-color="#7a5cff" stop-opacity="0"/>
    </radialGradient>
    <radialGradient id="p17-flash" cx=".4" cy=".35" r=".7">
      <stop offset="0" stop-color="#fffdf2"/>
      <stop offset=".55" stop-color="#e9dfc2"/>
      <stop offset="1" stop-color="#9c937a"/>
    </radialGradient>
    <clipPath id="p17-clip"><rect x="6" y="0" width="300" height="620" rx="54"/></clipPath>
  </defs>
  <!-- botões laterais -->
  <rect x="1" y="118" width="7" height="26" rx="3" fill="#bd7546"/>
  <rect x="1" y="168" width="7" height="52" rx="3" fill="#bd7546"/>
  <rect x="1" y="232" width="7" height="52" rx="3" fill="#bd7546"/>
  <rect x="304" y="190" width="7" height="80" rx="3" fill="#bd7546"/>
  <!-- aro -->
  <rect x="6" y="0" width="300" height="620" rx="54" fill="url(#p17-frame)"/>
  <!-- traseira -->
  <rect x="11" y="5" width="290" height="610" rx="49" fill="url(#p17-back)"/>
  <g clip-path="url(#p17-clip)">
    <rect x="6" y="196" width="300" height="424" fill="#bf622a" opacity=".55" clip-path="url(#p17-clip)"/>
    <rect x="6" y="196" width="300" height="2" fill="#fff" opacity=".18"/>
    <rect x="6" y="0" width="300" height="196" fill="url(#p17-bump)" clip-path="url(#p17-clip)"/>
    <rect x="6" y="193" width="300" height="6" fill="#000" opacity=".18"/>
    <rect x="6" y="150" width="10" height="4" fill="#87461e" opacity=".8"/>
    <rect x="296" y="150" width="10" height="4" fill="#87461e" opacity=".8"/>
    <rect x="20" y="16" width="164" height="164" rx="44" fill="#5e3015" opacity=".35"/>
    <circle cx="63" cy="59" r="36" fill="url(#p17-ring)"/>
    <circle cx="63" cy="59" r="30.96" fill="#0b0b0d"/>
    <circle cx="63" cy="59" r="26.64" fill="url(#p17-glass)"/>
    <circle cx="63" cy="59" r="26.64" fill="url(#p17-coat)"/>
    <circle cx="63" cy="59" r="12.959999999999999" fill="#020306" stroke="#26314a" stroke-width="1.8"/>
    <ellipse cx="52.92" cy="48.2" rx="7.2" ry="4.32" fill="#fff" opacity=".55" transform="rotate(-35 52.92 48.2)"/>
    <circle cx="73.8" cy="68.36" r="2.16" fill="#9fb4ff" opacity=".6"/>
    <circle cx="63" cy="137" r="36" fill="url(#p17-ring)"/>
    <circle cx="63" cy="137" r="30.96" fill="#0b0b0d"/>
    <circle cx="63" cy="137" r="26.64" fill="url(#p17-glass)"/>
    <circle cx="63" cy="137" r="26.64" fill="url(#p17-coat)"/>
    <circle cx="63" cy="137" r="12.959999999999999" fill="#020306" stroke="#26314a" stroke-width="1.8"/>
    <ellipse cx="52.92" cy="126.2" rx="7.2" ry="4.32" fill="#fff" opacity=".55" transform="rotate(-35 52.92 126.2)"/>
    <circle cx="73.8" cy="146.36" r="2.16" fill="#9fb4ff" opacity=".6"/>
    <circle cx="137" cy="98" r="36" fill="url(#p17-ring)"/>
    <circle cx="137" cy="98" r="30.96" fill="#0b0b0d"/>
    <circle cx="137" cy="98" r="26.64" fill="url(#p17-glass)"/>
    <circle cx="137" cy="98" r="26.64" fill="url(#p17-coat)"/>
    <circle cx="137" cy="98" r="12.959999999999999" fill="#020306" stroke="#26314a" stroke-width="1.8"/>
    <ellipse cx="126.92" cy="87.2" rx="7.2" ry="4.32" fill="#fff" opacity=".55" transform="rotate(-35 126.92 87.2)"/>
    <circle cx="147.8" cy="107.36" r="2.16" fill="#9fb4ff" opacity=".6"/>
    <circle cx="234" cy="66" r="12" fill="#6d6d6d" opacity=".5"/>
    <circle cx="234" cy="66" r="9.600000000000001" fill="url(#p17-flash)"/>
    <circle cx="234" cy="128" r="10" fill="#0a0a0c"/>
    <circle cx="234" cy="128" r="5.5" fill="#1c1c22"/>
    <circle cx="268" cy="98" r="2.6" fill="#000" opacity=".55"/>
  </g>
  <!-- brilho do vidro -->
  <rect x="11" y="5" width="290" height="610" rx="49" fill="url(#p17-sheen)"/>
  <rect x="6.75" y=".75" width="298.5" height="618.5" rx="53.25" fill="none" stroke="#fff" stroke-opacity=".28" stroke-width="1.5"/>
</svg>
